<svg width="40" height="27" viewBox="0 0 40 27" fill="none" xmlns="http://www.w3.org/2000/svg">
<mask id="path-1-inside-1_1535_1694" fill="white">
<path d="M20.0687 10.4432L9.48454 5.34305V20.0607H14.5017V11.4147L20.0687 14.3291L25.8419 11.4147V20.0607H30.5155V5.34305L20.0687 10.4432Z"/>
<path d="M30.5155 2.86582V0H40V26.2295L33.3333 22.9265H35.6701V2.86582H30.5155Z"/>
<path d="M0 26.2295V0L6.66667 3.15726H4.19244V23.4123H9.48454V26.2295H0Z"/>
</mask>
<path d="M9.48454 5.34305L59.4058 -98.2565L-105.515 -177.727L-105.515 5.34305H9.48454ZM20.0687 10.4432L-29.8526 114.043L20.3967 138.256L70.5211 113.785L20.0687 10.4432ZM30.5155 5.34305H145.515V-178.774L-19.9369 -97.9989L30.5155 5.34305ZM30.5155 20.0607V135.061H145.515V20.0607H30.5155ZM25.8419 20.0607H-89.1581V135.061H25.8419V20.0607ZM25.8419 11.4147H140.842V-175.461L-25.9826 -91.246L25.8419 11.4147ZM20.0687 14.3291L-33.2682 116.212L19.1126 143.634L71.8933 116.99L20.0687 14.3291ZM14.5017 11.4147L67.8386 -90.4684L-100.498 -178.595L-100.498 11.4147H14.5017ZM14.5017 20.0607V135.061H129.502V20.0607H14.5017ZM9.48454 20.0607H-105.515V135.061H9.48454V20.0607ZM30.5155 0V-115H-84.4845V0H30.5155ZM30.5155 2.86582H-84.4845V117.866H30.5155V2.86582ZM35.6701 2.86582H150.67V-112.134H35.6701V2.86582ZM35.6701 22.9265V137.927H150.67V22.9265H35.6701ZM33.3333 22.9265V-92.0735L-17.7205 125.973L33.3333 22.9265ZM40 26.2295L-11.0538 129.276L155 211.546V26.2295H40ZM40 0H155V-115H40V0ZM0 0L49.2218 -103.934L-115 -181.707V0H0ZM0 26.2295H-115V141.23H0V26.2295ZM9.48454 26.2295V141.23H124.485V26.2295H9.48454ZM9.48454 23.4123H124.485V-91.5877H9.48454V23.4123ZM4.19244 23.4123H-110.808V138.412H4.19244V23.4123ZM4.19244 3.15726V-111.843H-110.808V3.15726H4.19244ZM6.66667 3.15726V118.157L55.8885 -100.776L6.66667 3.15726ZM-40.4368 108.943L-29.8526 114.043L69.99 -93.1563L59.4058 -98.2565L-40.4368 108.943ZM70.5211 113.785L80.9678 108.685L-19.9369 -97.9989L-30.3837 -92.8987L70.5211 113.785ZM-84.4845 5.34305V20.0607H145.515V5.34305H-84.4845ZM30.5155 -94.9393H25.8419V135.061H30.5155V-94.9393ZM140.842 20.0607V11.4147H-89.1581V20.0607H140.842ZM-25.9826 -91.246L-31.7558 -88.3316L71.8933 116.99L77.6665 114.075L-25.9826 -91.246ZM73.4057 -87.554L67.8386 -90.4684L-38.8352 113.298L-33.2682 116.212L73.4057 -87.554ZM-100.498 11.4147V20.0607H129.502V11.4147H-100.498ZM14.5017 -94.9393H9.48454V135.061H14.5017V-94.9393ZM124.485 20.0607V5.34305H-105.515V20.0607H124.485ZM-84.4845 0V2.86582H145.515V0H-84.4845ZM30.5155 117.866H35.6701V-112.134H30.5155V117.866ZM-79.3299 2.86582V22.9265H150.67V2.86582H-79.3299ZM35.6701 -92.0735H33.3333V137.927H35.6701V-92.0735ZM-17.7205 125.973L-11.0538 129.276L91.0538 -76.8166L84.3872 -80.1196L-17.7205 125.973ZM155 26.2295V0H-75V26.2295H155ZM40 -115H30.5155V115H40V-115ZM-115 0V26.2295H115V0H-115ZM0 141.23H9.48454V-88.7705H0V141.23ZM124.485 26.2295V23.4123H-105.515V26.2295H124.485ZM9.48454 -91.5877H4.19244V138.412H9.48454V-91.5877ZM119.192 23.4123V3.15726H-110.808V23.4123H119.192ZM4.19244 118.157H6.66667V-111.843H4.19244V118.157ZM55.8885 -100.776L49.2218 -103.934L-49.2218 103.934L-42.5551 107.091L55.8885 -100.776Z" fill="black" mask="url(#path-1-inside-1_1535_1694)"/>
</svg>
