<svg width="80" height="80" viewBox="0 0 80 80" fill="none" xmlns="http://www.w3.org/2000/svg">
<rect width="80" height="80" fill="black"/>
<mask id="path-1-inside-1_1535_1693" fill="white">
<path d="M40.1031 35.6648L24.2268 28.0146V50.0911H31.7526V37.122L40.1031 41.4936L48.7629 37.122V50.0911H55.7732V28.0146L40.1031 35.6648Z"/>
<path d="M55.7732 24.2987V20H70V59.3443L60 54.3898H63.5051V24.2987H55.7732Z"/>
<path d="M10 59.3443V20L20 24.7359H16.2887V55.1184H24.2268V59.3443H10Z"/>
</mask>
<path d="M24.2268 28.0146L74.1481 -75.585L-90.7732 -155.055V28.0146H24.2268ZM40.1031 35.6648L-9.8182 139.264L40.4311 163.478L90.5555 139.007L40.1031 35.6648ZM55.7732 28.0146H170.773V-156.103L5.3208 -75.3274L55.7732 28.0146ZM55.7732 50.0911V165.091H170.773V50.0911H55.7732ZM48.7629 50.0911H-66.2371V165.091H48.7629V50.0911ZM48.7629 37.122H163.763V-149.754L-3.06167 -65.5386L48.7629 37.122ZM40.1031 41.4936L-13.2338 143.377L39.147 170.799L91.9276 144.154L40.1031 41.4936ZM31.7526 37.122L85.0895 -64.7611L-83.2474 -152.887V37.122H31.7526ZM31.7526 50.0911V165.091H146.753V50.0911H31.7526ZM24.2268 50.0911H-90.7732V165.091H24.2268V50.0911ZM55.7732 20V-95H-59.2268V20H55.7732ZM55.7732 24.2987H-59.2268V139.299H55.7732V24.2987ZM63.5051 24.2987H178.505V-90.7013H63.5051V24.2987ZM63.5051 54.3898V169.39H178.505V54.3898H63.5051ZM60 54.3898V-60.6102L8.94615 157.436L60 54.3898ZM70 59.3443L18.9461 162.39L185 244.661L185 59.3443H70ZM70 20H185V-95H70V20ZM10 20L59.2218 -83.9337L-105 -161.707L-105 20H10ZM10 59.3443H-105V174.344H10V59.3443ZM24.2268 59.3443V174.344H139.227V59.3443H24.2268ZM24.2268 55.1184H139.227V-59.8816H24.2268V55.1184ZM16.2887 55.1184H-98.7113V170.118H16.2887V55.1184ZM16.2887 24.7359V-90.2641H-98.7113V24.7359H16.2887ZM20 24.7359V139.736L69.2218 -79.1978L20 24.7359ZM-25.6945 131.614L-9.8182 139.264L90.0244 -67.9347L74.1481 -75.585L-25.6945 131.614ZM90.5555 139.007L106.226 131.357L5.3208 -75.3274L-10.3493 -67.6771L90.5555 139.007ZM-59.2268 28.0146V50.0911H170.773V28.0146H-59.2268ZM55.7732 -64.9089H48.7629V165.091H55.7732V-64.9089ZM163.763 50.0911V37.122H-66.2371V50.0911H163.763ZM-3.06167 -65.5386L-11.7215 -61.1671L91.9276 144.154L100.587 139.783L-3.06167 -65.5386ZM93.44 -60.3895L85.0895 -64.7611L-21.5844 139.005L-13.2338 143.377L93.44 -60.3895ZM-83.2474 37.122V50.0911H146.753V37.122H-83.2474ZM31.7526 -64.9089H24.2268V165.091H31.7526V-64.9089ZM139.227 50.0911V28.0146H-90.7732V50.0911H139.227ZM-59.2268 20V24.2987H170.773V20H-59.2268ZM55.7732 139.299H63.5051V-90.7013H55.7732V139.299ZM-51.4949 24.2987V54.3898H178.505V24.2987H-51.4949ZM63.5051 -60.6102H60V169.39H63.5051V-60.6102ZM8.94615 157.436L18.9461 162.39L121.054 -43.7019L111.054 -48.6563L8.94615 157.436ZM185 59.3443V20H-45V59.3443H185ZM70 -95H55.7732V135H70V-95ZM-105 20V59.3443H125V20H-105ZM10 174.344H24.2268V-55.6557H10V174.344ZM139.227 59.3443V55.1184H-90.7732V59.3443H139.227ZM24.2268 -59.8816H16.2887V170.118H24.2268V-59.8816ZM131.289 55.1184V24.7359H-98.7113V55.1184H131.289ZM16.2887 139.736H20V-90.2641H16.2887V139.736ZM69.2218 -79.1978L59.2218 -83.9337L-39.2218 123.934L-29.2218 128.67L69.2218 -79.1978Z" fill="white" mask="url(#path-1-inside-1_1535_1693)"/>
</svg>
