<svg width="40" height="26" viewBox="0 0 40 26" fill="none" xmlns="http://www.w3.org/2000/svg">
<mask id="path-1-inside-1_1461_7544" fill="white">
<path d="M20.0687 10.3519L9.48454 5.2963V19.8852H14.5017V11.3148L20.0687 14.2037L25.8419 11.3148V19.8852H30.5155V5.2963L20.0687 10.3519Z"/>
<path d="M30.5155 2.84074V0H40V26L33.3333 22.7259H35.6701V2.84074H30.5155Z"/>
<path d="M0 26V0L6.66667 3.12963H4.19244V23.2074H9.48454V26H0Z"/>
</mask>
<path d="M9.48454 5.2963L59.0505 -98.4737L-105.515 -177.079V5.2963H9.48454ZM20.0687 10.3519L-29.4972 114.122L20.3944 137.953L70.1637 113.868L20.0687 10.3519ZM30.5155 5.2963H145.515V-178.115L-19.5795 -98.2194L30.5155 5.2963ZM30.5155 19.8852V134.885H145.515V19.8852H30.5155ZM25.8419 19.8852H-89.1581V134.885H25.8419V19.8852ZM25.8419 11.3148H140.842V-174.825L-25.6203 -91.528L25.8419 11.3148ZM20.0687 14.2037L-32.9009 116.278L19.1193 143.273L71.5309 117.047L20.0687 14.2037ZM14.5017 11.3148L67.4713 -90.7598L-100.498 -177.924V11.3148H14.5017ZM14.5017 19.8852V134.885H129.502V19.8852H14.5017ZM9.48454 19.8852H-105.515V134.885H9.48454V19.8852ZM30.5155 0V-115H-84.4845V0H30.5155ZM30.5155 2.84074H-84.4845V117.841H30.5155V2.84074ZM35.6701 2.84074H150.67V-112.159H35.6701V2.84074ZM35.6701 22.7259V137.726H150.67V22.7259H35.6701ZM33.3333 22.7259V-92.2741L-17.3609 125.949L33.3333 22.7259ZM40 26L-10.6942 129.224L155 210.598V26H40ZM40 0H155V-115H40V0ZM0 0L48.8692 -104.1L-115 -181.027V0H0ZM0 26H-115V141H0V26ZM9.48454 26V141H124.485V26H9.48454ZM9.48454 23.2074H124.485V-91.7926H9.48454V23.2074ZM4.19244 23.2074H-110.808V138.207H4.19244V23.2074ZM4.19244 3.12963V-111.87H-110.808V3.12963H4.19244ZM6.66667 3.12963V118.13L55.5358 -100.97L6.66667 3.12963ZM-40.0814 109.066L-29.4972 114.122L69.6346 -93.4182L59.0505 -98.4737L-40.0814 109.066ZM70.1637 113.868L80.6105 108.812L-19.5795 -98.2194L-30.0263 -93.1638L70.1637 113.868ZM-84.4845 5.2963V19.8852H145.515V5.2963H-84.4845ZM30.5155 -95.1148H25.8419V134.885H30.5155V-95.1148ZM140.842 19.8852V11.3148H-89.1581V19.8852H140.842ZM-25.6203 -91.528L-31.3935 -88.6391L71.5309 117.047L77.3041 114.158L-25.6203 -91.528ZM73.0383 -87.8709L67.4713 -90.7598L-38.4679 113.389L-32.9009 116.278L73.0383 -87.8709ZM-100.498 11.3148V19.8852H129.502V11.3148H-100.498ZM14.5017 -95.1148H9.48454V134.885H14.5017V-95.1148ZM124.485 19.8852V5.2963H-105.515V19.8852H124.485ZM-84.4845 0V2.84074H145.515V0H-84.4845ZM30.5155 117.841H35.6701V-112.159H30.5155V117.841ZM-79.3299 2.84074V22.7259H150.67V2.84074H-79.3299ZM35.6701 -92.2741H33.3333V137.726H35.6701V-92.2741ZM-17.3609 125.949L-10.6942 129.224L90.6942 -77.2235L84.0275 -80.4976L-17.3609 125.949ZM155 26V0H-75V26H155ZM40 -115H30.5155V115H40V-115ZM-115 0V26H115V0H-115ZM0 141H9.48454V-89H0V141ZM124.485 26V23.2074H-105.515V26H124.485ZM9.48454 -91.7926H4.19244V138.207H9.48454V-91.7926ZM119.192 23.2074V3.12963H-110.808V23.2074H119.192ZM4.19244 118.13H6.66667V-111.87H4.19244V118.13ZM55.5358 -100.97L48.8692 -104.1L-48.8692 104.1L-42.2025 107.23L55.5358 -100.97Z" fill="black" mask="url(#path-1-inside-1_1461_7544)"/>
</svg>
