<svg width="1000" height="1000" viewBox="0 0 1000 1000" fill="none" xmlns="http://www.w3.org/2000/svg">
<path d="M358.124 852.746L359.005 850.253L377.224 856.691L376.343 859.184L370.962 857.93C370.236 857.745 369.69 857.66 369.326 857.675C368.938 857.754 368.515 858.036 368.056 858.521C367.511 859.047 366.743 859.998 365.753 861.375L326.952 912.274L320.911 910.139L322.507 846.094C322.601 844.402 322.634 843.191 322.604 842.461C322.488 841.773 322.304 841.276 322.052 840.972C321.777 840.731 321.332 840.466 320.715 840.176L315.644 837.737L316.525 835.244L339.827 843.477L338.946 845.97L333.468 844.682C332.4 844.448 331.767 844.512 331.567 844.873C331.281 845.275 331.106 846.688 331.041 849.11L330.636 862.773L354.033 871.04L362.301 860.155C363.773 858.23 364.555 857.032 364.649 856.562C364.657 856.133 364.172 855.674 363.194 855.185L358.124 852.746ZM351.99 873.769L330.511 866.18L329.46 903.344L351.99 873.769Z" fill="black"/>
<path d="M219.474 844.708L217.946 846.989L201.81 836.175L203.338 833.894L208.268 836.586C209.245 837.077 209.949 837.182 210.383 836.901C210.778 836.676 211.617 835.606 212.901 833.692L246.816 783.087L250.956 785.861L246.942 858.343L277.121 813.314C278.404 811.399 279.093 810.188 279.189 809.68C279.246 809.229 278.862 808.645 278.036 807.929L273.73 804.308L275.202 802.111L291.338 812.926L289.866 815.122L284.879 812.515C283.903 812.024 283.217 811.89 282.821 812.115C282.388 812.396 281.53 813.494 280.246 815.409L250.918 859.17C249.634 861.085 248.964 862.268 248.906 862.719C248.811 863.227 249.176 863.839 250.002 864.556L254.365 868.092L252.836 870.373L238.221 860.578L241.789 797.347L216.027 835.786C214.743 837.701 214.073 838.884 214.015 839.336C213.92 839.843 214.285 840.455 215.111 841.172L219.474 844.708Z" fill="black"/>
<path d="M180.224 746.962L178.18 748.795L160.867 729.486L162.912 727.653L167.024 731.478C167.85 732.195 168.481 732.494 168.92 732.374C169.359 732.254 170.462 731.402 172.228 729.817L189.417 714.406L191.046 716.223C190.442 718.495 190.3 720.672 190.618 722.754C193.243 723.041 195.817 723.829 198.339 725.119C200.817 726.358 203.187 728.24 205.45 730.764C209.071 734.802 211.164 739.118 211.73 743.71C212.245 748.347 211.39 753.03 209.164 757.758C206.892 762.435 203.384 766.901 198.639 771.156L192.96 776.248C188.316 780.412 183.57 783.346 178.724 785.05C173.833 786.704 169.113 786.975 164.564 785.863C159.97 784.7 155.818 782.049 152.106 777.91C148.531 773.922 146.346 769.962 145.552 766.03C144.662 762.092 144.931 758.482 146.358 755.199C147.74 751.865 150.001 749.155 153.139 747.07L160.568 752.156C155.224 755.946 152.057 759.878 151.066 763.954C150.026 768.074 151.18 772.002 154.529 775.737C158.15 779.776 162.302 781.563 166.985 781.098C171.622 780.582 177.02 777.563 183.178 772.042L195.824 760.704C201.982 755.182 205.572 750.096 206.594 745.446C207.52 740.792 206.15 736.42 202.484 732.331C200.628 730.261 198.529 728.682 196.188 727.594C193.801 726.456 191.232 726.028 188.48 726.31L177.728 735.951C175.961 737.535 174.994 738.539 174.827 738.962C174.609 739.43 174.837 740.09 175.511 740.943L180.224 746.962Z" fill="black"/>
<path d="M137.5 646.07L136.261 643.734L150.906 635.967L173.731 679.003L171.395 680.242L168.235 675.586C167.607 674.691 167.066 674.249 166.611 674.26C166.156 674.271 164.881 674.833 162.784 675.945L116.244 700.628C114.148 701.74 112.968 702.481 112.703 702.851C112.439 703.221 112.502 703.918 112.89 704.939L115.062 710.119L112.636 711.406L90.4304 669.538L105.075 661.771L106.266 664.017L98.2146 671.626C97.5911 672.186 97.1932 672.666 97.0208 673.065C96.7567 673.435 96.7535 673.935 97.0113 674.566C97.2092 675.229 97.6893 676.279 98.4518 677.716L107.696 695.146L133.662 681.375L127.276 669.336C126.514 667.898 125.944 666.896 125.566 666.329C125.129 665.793 124.713 665.515 124.318 665.494C123.831 665.445 123.181 665.521 122.367 665.723L114.723 667.59L113.484 665.254L134.508 654.103L135.747 656.439L129.914 661.72C129.291 662.281 128.893 662.761 128.72 663.159C128.456 663.53 128.453 664.03 128.711 664.661C128.909 665.323 129.389 666.373 130.151 667.811L136.537 679.85L163.041 665.793L153.225 647.285C152.462 645.847 151.892 644.845 151.515 644.278C151.077 643.742 150.661 643.464 150.267 643.443C149.78 643.394 149.13 643.471 148.316 643.672L137.5 646.07Z" fill="black"/>
<path d="M124.565 524.616L127.146 524.042L132.464 547.968L129.882 548.542L128.073 543.214C127.706 542.184 127.301 541.614 126.86 541.504C126.419 541.394 125.04 541.596 122.723 542.111L98.3009 547.539L104.964 577.521L129.387 572.093C131.703 571.578 133.038 571.177 133.391 570.89C133.744 570.604 133.869 569.916 133.766 568.828L133.148 563.235L135.729 562.661L141.047 586.587L138.465 587.161L136.656 581.833C136.288 580.803 135.884 580.234 135.443 580.123C135.001 580.013 133.623 580.215 131.306 580.73L79.8802 592.159C77.5637 592.674 76.229 593.075 75.876 593.362C75.523 593.648 75.398 594.336 75.501 595.424L76.2181 600.995L73.5376 601.591L68.2202 577.665L70.9007 577.069L72.6106 582.419C72.9783 583.449 73.3828 584.018 73.8241 584.129C74.2653 584.239 75.6442 584.037 77.9606 583.522L101.787 578.227L95.124 548.245L71.2973 553.54C68.9809 554.055 67.6461 554.456 67.2931 554.743C66.9402 555.029 66.8152 555.717 66.9181 556.805L67.6353 562.376L64.9548 562.972L59.6374 539.046L62.3179 538.45L64.0278 543.8C64.3955 544.829 64.8 545.399 65.2412 545.51C65.6824 545.62 67.0613 545.418 69.3778 544.903L120.804 533.474C123.12 532.959 124.455 532.558 124.808 532.271C125.161 531.985 125.286 531.297 125.183 530.209L124.565 524.616Z" fill="black"/>
<path d="M118.697 449.122L118.781 446.479L135.35 447.006L133.802 495.696L131.159 495.612L130.727 490.001C130.626 488.913 130.376 488.261 129.975 488.044C129.575 487.828 128.189 487.682 125.818 487.607L73.1635 485.934C70.7917 485.858 69.3993 485.916 68.9862 486.106C68.5732 486.297 68.2816 486.932 68.1117 488.012L67.4258 493.586L64.6812 493.499L66.1864 446.131L82.7551 446.657L82.6744 449.199L71.9076 451.807C71.088 451.985 70.5044 452.204 70.157 452.464C69.7439 452.654 69.4927 453.087 69.4034 453.763C69.2464 454.436 69.142 455.586 69.0903 457.212L68.4637 476.932L97.8402 477.866L98.273 464.245C98.3247 462.618 98.3274 461.465 98.2812 460.785C98.1672 460.103 97.944 459.655 97.6116 459.441C97.2136 459.157 96.6113 458.901 95.8046 458.672L88.2423 456.498L88.3262 453.855L112.112 454.611L112.028 457.254L104.343 458.943C103.523 459.12 102.94 459.339 102.592 459.6C102.179 459.79 101.928 460.223 101.839 460.898C101.682 461.572 101.577 462.722 101.526 464.348L101.093 477.969L131.079 478.922L131.745 457.982C131.796 456.356 131.799 455.203 131.753 454.523C131.639 453.841 131.416 453.393 131.083 453.179C130.685 452.895 130.083 452.638 129.276 452.409L118.697 449.122Z" fill="black"/>
<path d="M97.2882 346.551L94.6516 345.784L100.077 327.132L102.714 327.899L101.64 333.412C101.467 334.492 101.58 335.195 101.979 335.523C102.313 335.832 103.586 336.309 105.8 336.952L164.293 353.969L162.901 358.753L92.6028 376.857L144.651 391.998C146.865 392.642 148.228 392.932 148.74 392.87C149.188 392.788 149.628 392.245 150.061 391.241L152.21 386.041L154.748 386.78L149.323 405.431L146.784 404.693L147.76 399.151C147.933 398.072 147.853 397.378 147.519 397.069C147.12 396.741 145.814 396.255 143.6 395.611L93.0165 380.896C90.8031 380.252 89.4726 379.971 89.0252 380.052C88.5127 380.115 88.0398 380.648 87.6066 381.652L85.5559 386.881L82.9193 386.114L87.8338 369.22L149.18 353.491L104.749 340.566C102.535 339.922 101.205 339.641 100.757 339.722C100.245 339.785 99.7721 340.318 99.3389 341.322L97.2882 346.551Z" fill="black"/>
<path d="M131.372 285.363L129.019 283.947L143.912 259.2C148.177 252.113 153.741 248.062 160.602 247.048C167.464 246.034 175.077 248.044 183.442 253.078L189.978 257.011C198.401 262.08 203.771 267.884 206.088 274.422C208.405 280.959 207.431 287.772 203.165 294.859L188.272 319.606L186.007 318.243L188.368 313.135C188.811 312.136 188.911 311.444 188.667 311.06C188.424 310.676 187.285 309.872 185.252 308.649L140.115 281.485C138.082 280.261 136.838 279.632 136.385 279.596C135.932 279.561 135.367 279.973 134.692 280.832L131.372 285.363ZM146.596 261.052L140.408 271.334L194.084 303.637L200.272 293.355C202.16 290.218 203.135 287.284 203.197 284.551C203.258 281.819 202.192 279.12 199.998 276.454C197.781 273.695 194.232 270.848 189.353 267.911L174.104 258.734C169.282 255.832 165.162 254.065 161.745 253.433C158.362 252.742 155.478 253.064 153.093 254.398C150.649 255.697 148.483 257.915 146.596 261.052Z" fill="black"/>
<path d="M272.599 200.288L274.516 198.467L285.936 210.483L250.623 244.041L248.801 242.124L252.436 237.829C253.129 236.983 253.409 236.343 253.276 235.908C253.143 235.473 252.259 234.395 250.625 232.675L214.335 194.487C212.7 192.767 211.669 191.829 211.242 191.675C210.814 191.52 210.16 191.767 209.28 192.416L204.876 195.901L202.984 193.91L237.338 161.263L248.758 173.28L246.915 175.031L237.421 169.322C236.713 168.873 236.144 168.618 235.714 168.559C235.286 168.405 234.803 168.536 234.265 168.954C233.68 169.323 232.798 170.068 231.618 171.189L217.316 184.78L237.563 206.085L247.441 196.698C248.621 195.577 249.433 194.758 249.878 194.242C250.276 193.677 250.432 193.201 250.346 192.815C250.262 192.334 250.014 191.728 249.601 190.998L245.747 184.138L247.664 182.316L264.057 199.567L262.141 201.388L255.486 197.19C254.778 196.741 254.209 196.487 253.779 196.428C253.351 196.273 252.868 196.404 252.33 196.822C251.745 197.191 250.863 197.936 249.683 199.057L239.804 208.444L260.471 230.192L275.658 215.761C276.838 214.64 277.65 213.821 278.095 213.305C278.493 212.74 278.649 212.264 278.562 211.878C278.479 211.396 278.231 210.791 277.818 210.061L272.599 200.288Z" fill="black"/>
<path d="M290.415 133.991L289.062 131.601L313.67 117.679C319.453 114.407 324.663 113.29 329.301 114.327C333.964 115.272 337.581 118.017 340.152 122.561L341.704 125.305C343.741 128.904 344.474 132.54 343.903 136.213C343.358 139.793 341.523 143.09 338.399 146.104L361.547 160.584C363.116 161.566 364.244 162.252 364.932 162.642C365.586 162.973 366.111 163.143 366.506 163.153C366.927 163.071 367.449 162.892 368.073 162.617L372.357 160.895L373.659 163.196L360.293 170.758L330.883 151.408L322.208 156.316L333.577 176.409C334.745 178.474 335.518 179.634 335.895 179.888C336.273 180.142 336.967 180.061 337.978 179.644L343.147 177.421L344.449 179.722L323.116 191.792L321.814 189.49L326.382 186.205C327.26 185.553 327.687 184.999 327.663 184.545C327.64 184.091 327.044 182.831 325.876 180.766L299.935 134.915C298.766 132.85 297.993 131.69 297.616 131.436C297.238 131.182 296.544 131.263 295.533 131.679L290.415 133.991ZM315.272 120.512L305.181 126.221L320.606 153.483L330.697 147.774C333.765 146.038 335.604 143.712 336.214 140.797C336.849 137.789 336.031 134.279 333.761 130.266L331.808 126.814C329.538 122.801 326.967 120.322 324.095 119.376C321.281 118.397 318.341 118.776 315.272 120.512Z" fill="black"/>
<path d="M715.71 198.823L718.034 200.084L710.126 214.654L667.311 191.417L668.573 189.093L673.78 191.225C674.798 191.623 675.493 191.692 675.866 191.432C676.239 191.171 676.991 189.998 678.123 187.912L703.252 141.611C704.384 139.526 704.958 138.256 704.973 137.801C704.988 137.346 704.552 136.801 703.663 136.164L698.989 133.049L700.299 130.636L741.952 153.242L734.045 167.812L731.81 166.599L734.312 155.807C734.521 154.995 734.587 154.375 734.511 153.948C734.526 153.493 734.252 153.074 733.688 152.691C733.157 152.249 732.176 151.639 730.746 150.863L713.406 141.452L699.386 167.284L711.363 173.785C712.794 174.561 713.823 175.081 714.451 175.345C715.112 175.549 715.612 175.55 715.953 175.35C716.385 175.121 716.885 174.698 717.451 174.08L722.788 168.298L725.112 169.559L713.76 190.475L711.436 189.214L713.376 181.588C713.586 180.776 713.652 180.157 713.575 179.729C713.591 179.275 713.317 178.856 712.753 178.473C712.222 178.03 711.241 177.421 709.811 176.645L697.834 170.144L683.523 196.513L701.936 206.506C703.366 207.282 704.395 207.802 705.023 208.066C705.684 208.27 706.184 208.272 706.525 208.071C706.957 207.843 707.457 207.42 708.024 206.802L715.71 198.823Z" fill="black"/>
<path d="M813.45 217.825L815.204 215.711L830.153 228.114L828.4 230.227L823.771 227.047C822.849 226.459 822.159 226.282 821.699 226.518C821.283 226.701 820.339 227.68 818.867 229.454L779.97 276.338L776.135 273.156L787.515 201.461L752.904 243.18C751.433 244.954 750.623 246.089 750.477 246.584C750.374 247.027 750.696 247.647 751.445 248.444L755.36 252.485L753.672 254.52L738.722 242.117L740.41 240.082L745.105 243.184C746.026 243.772 746.695 243.975 747.111 243.791C747.571 243.556 748.537 242.551 750.008 240.777L783.645 200.233C785.117 198.459 785.904 197.35 786.008 196.907C786.154 196.412 785.853 195.766 785.105 194.969L781.125 191.006L782.878 188.893L796.419 200.127L786.425 262.664L815.971 227.051C817.443 225.277 818.23 224.169 818.333 223.726C818.48 223.23 818.179 222.584 817.431 221.787L813.45 217.825Z" fill="black"/>
<path d="M857.794 270.166L889.809 313.781L876.445 323.591L874.881 321.459L881.744 312.763C882.279 312.117 882.604 311.585 882.716 311.166C882.924 310.761 882.854 310.265 882.508 309.679C882.216 309.052 881.589 308.083 880.626 306.771L873.826 297.507L827.341 331.628C825.428 333.032 824.367 333.937 824.16 334.342C823.952 334.746 824.115 335.426 824.647 336.381L827.465 341.251L825.334 342.816L810.831 323.057L812.962 321.493L816.764 325.641C817.515 326.435 818.115 326.794 818.563 326.717C819.011 326.64 820.192 325.9 822.105 324.496L868.59 290.374L861.73 281.028C860.807 279.771 860.07 278.882 859.519 278.361C859.064 277.854 858.592 277.612 858.103 277.634C857.709 277.671 857.125 277.848 856.348 278.165L845.995 282.107L844.43 279.975L857.794 270.166Z" fill="black"/>
<path d="M862.171 438.159L910.175 400.712L849.595 406.167L847.139 399.921L898.97 363.591C900.626 362.43 901.594 361.649 901.873 361.248C902.153 360.847 902.157 360.117 901.887 359.057L900.462 354.044L903.018 353.04L911.687 375.093L909.131 376.098L906.761 371.456C906.238 370.496 905.762 370.028 905.334 370.05C904.993 370.111 903.964 370.735 902.244 371.921L859.347 401.787L919.984 396.2L922.291 402.068L874.534 439.309L925.945 432.212C928.037 431.973 929.203 431.697 929.444 431.383C929.773 431.108 929.815 430.473 929.569 429.477L928.107 424.369L930.663 423.364L937.434 440.59L934.879 441.595L932.508 436.954C932.01 436.057 931.522 435.557 931.044 435.453C930.629 435.325 929.376 435.38 927.285 435.62L864.589 444.311L862.171 438.159Z" fill="black"/>
<path d="M863.506 520.927L862.351 512.154L930.915 503.128L932.07 511.9L863.506 520.927Z" fill="black"/>
<path d="M855.737 592.302C856.834 583.762 860.53 577.606 866.825 573.835C873.111 570.131 881.062 568.896 890.679 570.132L898.244 571.103C904.565 571.915 909.959 573.565 914.424 576.053C918.881 578.608 922.179 581.937 924.318 586.039C926.457 590.142 927.176 594.917 926.476 600.364C925.828 605.408 924.284 609.447 921.843 612.483C919.47 615.528 916.574 617.583 913.156 618.647C909.806 619.721 906.282 619.747 902.585 618.725L901.581 609.778C907.942 611.347 912.98 611.242 916.694 609.464C920.476 607.694 922.661 604.522 923.249 599.949C923.905 594.839 922.59 590.705 919.305 587.549C916.01 584.459 910.261 582.388 902.057 581.334L884.404 579.066C876.133 578.004 870 578.652 866.006 581.01C862.012 583.367 859.656 587.337 858.939 592.919C858.654 595.138 858.752 597.304 859.232 599.416C859.78 601.537 860.905 603.425 862.606 605.079C864.308 606.733 866.818 607.944 870.137 608.712L867.72 614.759C862.53 612.588 859.068 609.478 857.332 605.427C855.655 601.452 855.124 597.077 855.737 592.302Z" fill="black"/>
<path d="M900.875 669.679L903.347 670.616L894.668 693.537L892.195 692.601L893.605 687.154C893.926 686.115 893.9 685.417 893.529 685.058C893.22 684.724 891.956 684.137 889.737 683.296L861.775 672.708L881.304 707.29C882.543 709.571 883.352 710.784 883.733 710.928C884.152 711.16 884.598 710.748 885.07 709.695L887.477 705.06L889.95 705.996L883.107 724.067L880.634 723.131L881.9 718.064C882.077 717.406 882.142 716.851 882.096 716.398C882.113 715.97 881.933 715.394 881.554 714.671C881.215 714.035 880.615 712.938 879.755 711.38L867.493 689.772L828.694 695.742C826.923 696.014 825.649 696.22 824.871 696.36C824.069 696.564 823.488 696.852 823.13 697.224C822.835 697.619 822.512 698.186 822.16 698.923L819.861 703.272L817.388 702.335L823.006 687.498L862.924 681.734L856.829 670.835L840.47 664.641C838.251 663.8 836.915 663.403 836.463 663.45C836.01 663.496 835.529 664.002 835.018 664.968L832.466 669.983L829.993 669.047L838.673 646.126L841.146 647.062L839.736 652.509C839.478 653.572 839.504 654.27 839.812 654.604C840.121 654.939 841.384 655.526 843.604 656.366L892.87 675.022C895.09 675.862 896.425 676.259 896.878 676.213C897.394 676.191 897.876 675.685 898.323 674.694L900.875 669.679Z" fill="black"/>
<path d="M785.402 769.386L783.839 771.644L770.041 762.093L796.377 724.045L798.552 725.55L795.87 730.497C795.364 731.466 795.22 732.15 795.439 732.549C795.658 732.947 796.743 733.822 798.694 735.173L842.01 765.155C843.961 766.506 845.162 767.213 845.612 767.277C846.063 767.342 846.652 766.966 847.381 766.151L850.983 761.842L853.24 763.404L839.291 783.557L837.033 781.995L839.799 777.106C840.305 776.137 840.448 775.453 840.229 775.054C840.011 774.655 838.926 773.781 836.975 772.43L789.561 739.611L779.084 754.747C778.158 756.085 777.53 757.052 777.2 757.648C776.926 758.283 776.87 758.78 777.033 759.14C777.213 759.595 777.58 760.137 778.133 760.768L785.402 769.386Z" fill="black"/>
<path d="M713.167 832.263L711.184 834.012L700.219 821.579L736.754 789.358L738.503 791.341L734.712 795.498C733.988 796.317 733.684 796.947 733.801 797.386C733.917 797.826 734.76 798.936 736.33 800.715L771.175 840.226C772.745 842.005 773.74 842.981 774.162 843.151C774.584 843.322 775.246 843.099 776.149 842.483L780.681 839.165L782.497 841.224L746.953 872.571L735.988 860.139L737.895 858.457L747.17 864.515C747.861 864.991 748.42 865.266 748.848 865.341C749.269 865.511 749.757 865.398 750.31 865C750.908 864.653 751.818 863.942 753.038 862.866L767.835 849.815L748.395 827.772L738.174 836.786C736.954 837.862 736.112 838.65 735.648 839.15C735.229 839.7 735.056 840.169 735.127 840.558C735.193 841.042 735.419 841.657 735.804 842.402L739.4 849.401L737.417 851.149L721.676 833.301L723.659 831.552L730.154 835.995C730.844 836.47 731.403 836.746 731.831 836.821C732.253 836.991 732.74 836.878 733.293 836.48C733.892 836.133 734.801 835.422 736.021 834.345L746.242 825.331L726.398 802.83L710.685 816.688C709.465 817.764 708.623 818.552 708.159 819.051C707.74 819.601 707.567 820.071 707.639 820.46C707.704 820.944 707.93 821.559 708.315 822.303L713.167 832.263Z" fill="black"/>
<path d="M687.618 900.435L688.847 902.89L663.565 915.545C657.623 918.519 652.363 919.37 647.784 918.099C643.175 916.918 639.701 913.994 637.365 909.326L635.954 906.506C634.102 902.808 633.555 899.139 634.311 895.5C635.038 891.953 637.037 888.753 640.311 885.901L617.927 870.265C616.411 869.205 615.319 868.462 614.651 868.038C614.015 867.675 613.499 867.478 613.105 867.448C612.68 867.508 612.15 867.66 611.513 867.903L607.148 869.406L605.964 867.041L619.696 860.168L648.086 880.986L656.999 876.525L646.665 855.881C645.603 853.759 644.89 852.561 644.526 852.288C644.162 852.016 643.465 852.062 642.434 852.426L637.159 854.384L635.975 852.019L657.893 841.049L659.076 843.413L654.347 846.463C653.438 847.069 652.984 847.6 652.984 848.055C652.984 848.51 653.515 849.798 654.577 851.92L678.157 899.029C679.219 901.151 679.932 902.348 680.296 902.621C680.66 902.894 681.358 902.848 682.389 902.484L687.618 900.435ZM662.108 912.635L672.476 907.446L658.455 879.435L648.088 884.624C644.935 886.202 642.98 888.432 642.223 891.313C641.436 894.285 642.075 897.832 644.138 901.955L645.914 905.501C647.977 909.624 650.419 912.231 653.24 913.321C655.999 914.442 658.955 914.213 662.108 912.635Z" fill="black"/>
</svg>
